<svg width="43" height="74" viewBox="0 0 43 74" fill="none" xmlns="http://www.w3.org/2000/svg">
<circle cx="21.5" cy="21.5" r="21.5" fill="#E37777"/>
<path d="M26.389 63.486C24.6126 67.3939 19.0617 67.3939 17.2853 63.486L1.83716 29.5H41.8372L26.389 63.486Z" fill="#E37777"/>
<circle cx="21.5" cy="21.5" r="15.5" fill="white"/>
<path d="M15.0332 13.0195C15.4889 13.0195 16.528 13.2201 18.1504 13.6211C18.3327 13.7487 18.4238 13.8672 18.4238 13.9766C18.2598 14.7057 18.1777 15.6172 18.1777 16.7109L18.3145 19.418C18.3145 21.0768 18.2233 22.8815 18.041 24.832L17.9863 26.1992V26.3633C17.9863 26.6367 18.0137 26.901 18.0684 27.1562H18.123C18.2871 27.0651 18.7428 26.0898 19.4902 24.2305C20.0007 23.0638 20.4199 21.9427 20.748 20.8672C21.0215 20.6484 21.2493 20.293 21.4316 19.8008L21.5137 19.7461H21.5957C21.8874 19.8737 22.2611 19.9648 22.7168 20.0195C23.1178 20.0195 23.4277 21.5872 23.6465 24.7227C23.8105 25.944 23.9564 26.5547 24.084 26.5547C24.1934 26.5547 24.4577 25.7617 24.877 24.1758C25.1322 23.3372 25.4421 22.1432 25.8066 20.5938C26.1348 19.4271 26.4447 17.7227 26.7363 15.4805C26.791 15.3164 26.8913 14.5781 27.0371 13.2656C27.3288 13.2109 27.821 13.1836 28.5137 13.1836H29.0332C29.8717 13.1836 30.373 13.3112 30.5371 13.5664L30.6738 13.8945L30.6191 14.1133C30.6191 15.3346 30.5918 16.0638 30.5371 16.3008H30.4824C30.0267 16.2461 29.735 16.2188 29.6074 16.2188H29.5801C29.2702 16.2188 29.0697 16.4648 28.9785 16.957C28.0488 19.9102 27.4837 22.1706 27.2832 23.7383C27.1556 24.194 27.0462 24.987 26.9551 26.1172C26.5358 28.3411 26.2988 29.4896 26.2441 29.5625C26.0436 29.763 25.6243 29.9271 24.9863 30.0547C23.7103 30.0729 23.0449 29.9909 22.9902 29.8086L22.498 28.1953C22.1882 27.0104 22.0332 26.1992 22.0332 25.7617C21.8874 24.9232 21.7507 24.3854 21.623 24.1484C21.5319 24.1484 21.304 24.6862 20.9395 25.7617C20.4837 26.7279 20.1556 27.5391 19.9551 28.1953L19.7363 28.8516C19.4993 29.1432 19.3809 29.3438 19.3809 29.4531V29.5352L19.4629 29.8086C19.4629 30.0091 18.6426 30.1458 17.002 30.2188C16.8561 30.1823 16.7832 30.1458 16.7832 30.1094L16.8379 29.9453C16.6738 29.9453 16.5007 29.526 16.3184 28.6875C16.1178 27.6484 16.0176 26.6914 16.0176 25.8164V21.9883L15.6621 18.8164L15.6074 16.957L15.6348 16.5469C15.5436 16.2917 15.3249 16.1641 14.9785 16.1641C14.3405 16.1094 14.0215 15.9544 14.0215 15.6992C14.0944 15.444 14.1855 14.7331 14.2949 13.5664C14.3314 13.457 14.459 13.3385 14.6777 13.2109C14.7507 13.0833 14.8691 13.0195 15.0332 13.0195ZM29.6074 13.457L27.6113 13.5117C27.3926 13.5299 27.2832 13.5755 27.2832 13.6484V13.7031C27.2832 13.7578 27.3105 13.7852 27.3652 13.7852L29.6621 13.5391V13.457H29.6074ZM16.3184 14.0586L16.4004 14.1133L16.7832 14.0039H16.9473C17.0566 14.0586 17.166 14.2773 17.2754 14.6602L17.4668 14.6875H17.5215C17.7585 14.6875 17.9043 14.569 17.959 14.332V14.3047C17.959 14.2135 17.6764 14.0768 17.1113 13.8945H16.6738C16.4368 13.9128 16.3184 13.9674 16.3184 14.0586ZM15.2246 15.6719V15.6992C15.2428 15.7721 15.3066 15.8086 15.416 15.8086H15.7988L15.8809 15.7539V15.6172C15.8444 15.5625 15.7715 15.5352 15.6621 15.5352H15.5254C15.3613 15.5352 15.2611 15.5807 15.2246 15.6719ZM29.5527 15.5898H29.4434V15.6172H29.5527V15.5898ZM16.9473 16.5469H16.8926V17.9688V18.1875C16.8926 18.4427 16.9564 18.6706 17.084 18.8711L17.0293 18.9258V18.9805L17.1113 19.0625H17.1934L17.2754 18.9258L17.0293 16.5469L17.002 16.4922L16.9473 16.5469ZM27.0918 19.0352H27.0371C26.9095 19.5273 26.8457 19.9375 26.8457 20.2656V20.293H26.9004C27.0462 20.0924 27.1191 19.7461 27.1191 19.2539L27.0918 19.0352ZM17.8496 20.2656H17.7676V20.293H17.8496V20.2656ZM22.7168 20.5664L22.6621 20.6211V21.0312L22.7715 21.1406H22.8262L22.9082 21.0859L22.7988 20.5664H22.7168ZM16.8926 20.7852H16.8379V21.2773L16.8926 21.6875H17.002V21.4688L16.8926 20.7852ZM22.7715 21.3047L22.6895 21.3867V21.6875C22.6895 21.9062 22.7624 22.3984 22.9082 23.1641H22.9902V22.918C22.9902 21.8424 22.9173 21.3047 22.7715 21.3047ZM21.8145 22.6719H21.6777L21.623 22.7539L21.6777 22.7812H21.7051L21.8145 22.6992V22.6719ZM25.9707 24.2305L25.998 24.2852H26.0527C26.1257 24.2122 26.1621 24.1211 26.1621 24.0117V23.9844H26.1348C26.0254 24.0391 25.9707 24.1211 25.9707 24.2305ZM22.1152 24.0391H22.0879V24.2305C22.1061 24.5768 22.1608 24.75 22.252 24.75H22.2793L22.3613 24.7227C22.2337 24.2669 22.1517 24.0391 22.1152 24.0391ZM25.8066 25.2422L25.8613 25.5156L25.5332 26.2812H25.5879C25.8249 26.026 25.9434 25.7708 25.9434 25.5156V25.1875C26.0163 25.1146 26.0527 25.0052 26.0527 24.8594V24.5859H25.998C25.8704 24.6589 25.8066 24.8776 25.8066 25.2422ZM20.6113 25.4336H20.4746L20.4473 25.5977V25.6797H20.4746L20.6113 25.543V25.4336ZM25.123 25.625L25.041 25.543C24.804 26.0352 24.6855 26.3542 24.6855 26.5V26.5547H24.7402C24.9954 26.1901 25.123 25.8802 25.123 25.625ZM26.2715 26.3906H26.3535C26.4264 26.3724 26.4902 26.1445 26.5449 25.707H26.4902C26.3444 25.9076 26.2715 26.1354 26.2715 26.3906ZM23.4824 26.6367H23.4004V26.6641C23.4004 26.9193 23.4368 27.0469 23.5098 27.0469H23.5645L23.4824 26.6367ZM23.5645 27.2383H23.4551V27.8945C23.4733 28.569 23.5736 28.9062 23.7559 28.9062H23.8926C24.0202 28.9062 24.1113 28.8607 24.166 28.7695V28.6602H23.9473C23.7103 28.6602 23.5827 28.1862 23.5645 27.2383ZM18.916 28.1953C18.916 28.3411 18.998 28.4141 19.1621 28.4141L19.2168 28.3047V27.8945H19.1621C18.998 27.9857 18.916 28.0859 18.916 28.1953ZM24.9043 28.7148V28.8242L24.9863 28.9062H25.0957C25.2051 28.8516 25.2598 28.7331 25.2598 28.5508L25.1777 28.4688H25.1504C25.041 28.5417 24.959 28.6237 24.9043 28.7148ZM25.6426 29.5078V29.5625H25.6699C25.7975 29.5625 25.8978 29.362 25.9707 28.9609V28.8242H25.9434C25.8522 28.8242 25.752 29.0521 25.6426 29.5078ZM17.3027 28.6875V28.7148L17.4941 28.9062H17.6309L17.6855 28.6602V28.4688C17.6855 28.4323 17.6491 28.4141 17.5762 28.4141C17.3939 28.4688 17.3027 28.5599 17.3027 28.6875ZM18.752 28.8789C18.8796 28.9518 19.0163 28.9883 19.1621 28.9883H19.1895L19.2441 28.9336V28.9062C19.2441 28.724 19.1621 28.6328 18.998 28.6328C18.834 28.6875 18.752 28.7695 18.752 28.8789ZM23.291 29.3164V29.3711C23.291 29.4258 23.3548 29.4531 23.4824 29.4531C23.5553 29.4349 23.6191 29.3984 23.6738 29.3438C23.6556 29.2344 23.5736 29.1797 23.4277 29.1797C23.3366 29.2344 23.291 29.2799 23.291 29.3164ZM24.2207 29.5898L24.3301 29.6445H24.5762C24.7585 29.6445 24.8587 29.6172 24.877 29.5625V29.5078L24.6582 29.4531H24.4941C24.3483 29.4531 24.2572 29.4987 24.2207 29.5898ZM23.1816 29.918H23.2637C23.446 29.918 23.5645 29.8633 23.6191 29.7539L23.5371 29.6719H23.4004C23.2546 29.763 23.1816 29.8451 23.1816 29.918ZM18.2324 29.5352V29.5625H18.9707L19.1074 29.5352V29.3984H18.916C18.4603 29.3984 18.2324 29.444 18.2324 29.5352ZM17.4941 29.4805L17.3848 29.5898L17.4668 29.6445H17.5762L17.7129 29.5625L17.6309 29.4805H17.4941ZM16.3457 29.9453V29.8906H16.4277V30L16.3457 29.9453Z" fill="black"/>
</svg>
